<svg width="82" height="68" viewBox="0 0 82 68" fill="none" xmlns="http://www.w3.org/2000/svg">
<path opacity="0.2" fill-rule="evenodd" clip-rule="evenodd" d="M12.6211 53.4402C10.151 56.3712 12.3426 60.3742 16.1758 60.3742H59.5643C59.5643 60.3742 73.6479 60.6782 76.7893 49.9381C79.9306 39.1981 72.9816 32.0043 56.5251 32.0043C34.2708 32.0043 19.6993 45.0415 12.6211 53.4402Z" fill="#29CC39"/>
<path d="M1 66.6561H81" stroke="#6B7A99" stroke-width="2" stroke-linecap="round" stroke-linejoin="round"/>
<path fill-rule="evenodd" clip-rule="evenodd" d="M12.6211 53.4402C10.151 56.3712 12.3426 60.3742 16.1758 60.3742H59.5643C59.5643 60.3742 73.6479 60.6782 76.7893 49.9381C79.9307 39.1981 72.9816 32.0043 56.5251 32.0043C34.2708 32.0043 19.6993 45.0415 12.6211 53.4402Z" stroke="#6B7A99" stroke-width="2" stroke-linecap="round" stroke-linejoin="round"/>
<path d="M60.3749 32.0043L67.5691 14.577" stroke="#6B7A99" stroke-width="2" stroke-linecap="round" stroke-linejoin="round"/>
<path d="M53.4855 14.577H75.2695" stroke="#6B7A99" stroke-width="2" stroke-linecap="round" stroke-linejoin="round"/>
<path d="M18.3266 46.1934L6.31845 23.0234C5.79242 22.0085 5.88897 20.7827 6.56741 19.8626L17.8231 4.59751C18.8221 3.24262 20.7402 2.97477 22.0722 4.00416L29.0667 9.40966" stroke="#6B7A99" stroke-width="2" stroke-linecap="round" stroke-linejoin="round"/>
<path d="M13.5774 8.20662L4.74963 1" stroke="#6B7A99" stroke-width="2" stroke-linecap="round" stroke-linejoin="round"/>
<path d="M36.334 52.0613C36.5486 52.0613 51.5542 52.0613 51.5542 52.0613" stroke="#6B7A99" stroke-width="2" stroke-linecap="round" stroke-linejoin="round"/>
<path d="M43.9441 52.0614L54.6268 43.8441" stroke="#6B7A99" stroke-width="2" stroke-linecap="round" stroke-linejoin="round"/>
</svg>
