<svg width="78" height="64" viewBox="0 0 78 64" fill="none" xmlns="http://www.w3.org/2000/svg">
<path opacity="0.2" fill-rule="evenodd" clip-rule="evenodd" d="M59.783 25H16.9129C15.8083 25 14.9129 24.1046 14.9129 23C14.9129 22.7899 14.946 22.5812 15.0109 22.3814L19.3222 9.12603C19.5902 8.30227 20.3579 7.74463 21.2242 7.74463H55.4717C56.3379 7.74463 57.1057 8.30227 57.3736 9.12603L61.6849 22.3814C61.7499 22.5812 61.783 22.7899 61.783 23C61.783 24.1046 60.8876 25 59.783 25Z" fill="#3361FF"/>
<path fill-rule="evenodd" clip-rule="evenodd" d="M57.566 54H20V59C20 61.2091 18.2091 63 16 63H11C8.79086 63 7 61.2091 7 59V35.4091C7 29.8421 7.92969 24.3142 9.7507 19.0535L14.8354 4.36445C15.5325 2.35066 17.4293 1 19.5603 1H58.0057C60.1367 1 62.0335 2.35066 62.7306 4.36445L67.8153 19.0535C69.6363 24.3142 70.566 29.8421 70.566 35.4091V59C70.566 61.2091 68.7751 63 66.566 63H61.566C59.3569 63 57.566 61.2091 57.566 59V54Z" stroke="#6B7A99" stroke-width="2" stroke-linecap="round" stroke-linejoin="round"/>
<path d="M7 31H4C2.34315 31 1 29.6569 1 28V24C1 22.3431 2.34315 21 4 21H9" stroke="#6B7A99" stroke-width="2" stroke-linecap="round" stroke-linejoin="round"/>
<path d="M71 31H74C75.6569 31 77 29.6569 77 28V24C77 22.3431 75.6569 21 74 21H69" stroke="#6B7A99" stroke-width="2" stroke-linecap="round" stroke-linejoin="round"/>
<path fill-rule="evenodd" clip-rule="evenodd" d="M21 43C23.7614 43 26 40.7614 26 38C26 35.2386 23.7614 33 21 33C18.2386 33 16 35.2386 16 38C16 40.7614 18.2386 43 21 43Z" stroke="#6B7A99" stroke-width="2" stroke-linecap="round" stroke-linejoin="round"/>
<path fill-rule="evenodd" clip-rule="evenodd" d="M57 43C59.7614 43 62 40.7614 62 38C62 35.2386 59.7614 33 57 33C54.2386 33 52 35.2386 52 38C52 40.7614 54.2386 43 57 43Z" stroke="#6B7A99" stroke-width="2" stroke-linecap="round" stroke-linejoin="round"/>
<path fill-rule="evenodd" clip-rule="evenodd" d="M59.783 25H16.9129C15.8083 25 14.9129 24.1046 14.9129 23C14.9129 22.7899 14.946 22.5812 15.0109 22.3814L19.3222 9.12603C19.5902 8.30227 20.3579 7.74463 21.2242 7.74463H55.4717C56.3379 7.74463 57.1057 8.30227 57.3736 9.12603L61.6849 22.3814C61.7499 22.5812 61.783 22.7899 61.783 23C61.783 24.1046 60.8876 25 59.783 25Z" stroke="#6B7A99" stroke-width="2" stroke-linecap="round" stroke-linejoin="round"/>
<path d="M7 50L7.09324 50.1535C8.5441 52.5418 11.136 54 13.9305 54H20" stroke="#6B7A99" stroke-width="2" stroke-linecap="round" stroke-linejoin="round"/>
<path d="M70.5 50L70.4068 50.1535C68.9559 52.5418 66.364 54 63.5695 54H57.5" stroke="#6B7A99" stroke-width="2" stroke-linecap="round" stroke-linejoin="round"/>
</svg>
