<svg width="72" height="70" viewBox="0 0 72 70" fill="none" xmlns="http://www.w3.org/2000/svg">
<path opacity="0.2" fill-rule="evenodd" clip-rule="evenodd" d="M1 34.6759C1 48.2069 16.1177 59.6759 36 59.6759C55.8823 59.6759 71 48.2069 71 34.6759C50.8896 34.6759 21.1301 34.6759 1 34.6759Z" fill="#CC7429"/>
<rect x="23" y="63" width="25" height="6" rx="3" stroke="#6B7A99" stroke-width="2" stroke-linecap="round" stroke-linejoin="round"/>
<path fill-rule="evenodd" clip-rule="evenodd" d="M1 34C1 47.531 16.1177 59 36 59C55.8823 59 71 47.531 71 34C50.8896 34 21.1301 34 1 34Z" stroke="#6B7A99" stroke-width="2" stroke-linecap="round" stroke-linejoin="round"/>
<path d="M50.8576 32.8508L58.1699 20.1855C59.5506 17.794 62.6085 16.9746 65 18.3553C67.3915 19.7361 68.2108 22.794 66.8301 25.1855L62.3392 32.964" stroke="#6B7A99" stroke-width="2" stroke-linecap="round" stroke-linejoin="round"/>
<path d="M23.6849 6.60166C25.9821 4.30446 29.9317 2.44986 31.2239 3.74204C32.516 5.03421 30.6614 8.98384 28.3642 11.281" stroke="#6B7A99" stroke-width="2" stroke-linecap="round" stroke-linejoin="round"/>
<path d="M28.4056 11.5425C31.3003 13.0174 34.2846 16.2006 33.455 17.8288C32.6254 19.4571 28.2959 18.9137 25.4013 17.4388" stroke="#6B7A99" stroke-width="2" stroke-linecap="round" stroke-linejoin="round"/>
<path d="M18.6292 16.5238C18.121 19.7325 18.9422 24.0179 20.7471 24.3038C22.552 24.5897 24.6572 20.7677 25.1654 17.559" stroke="#6B7A99" stroke-width="2" stroke-linecap="round" stroke-linejoin="round"/>
<path d="M17.4068 9.80039C14.1981 10.3086 10.3761 12.4138 10.662 14.2187C10.9479 16.0236 15.2333 16.8448 18.442 16.3366" stroke="#6B7A99" stroke-width="2" stroke-linecap="round" stroke-linejoin="round"/>
<path d="M23.4234 6.56023C21.9485 3.66559 18.7653 0.681259 17.137 1.51089C15.5088 2.34052 16.0521 6.66994 17.527 9.56458" stroke="#6B7A99" stroke-width="2" stroke-linecap="round" stroke-linejoin="round"/>
<path fill-rule="evenodd" clip-rule="evenodd" d="M22.5 14.6759C23.8807 14.6759 25 13.5566 25 12.1759C25 10.7952 23.8807 9.6759 22.5 9.6759C21.1193 9.6759 20 10.7952 20 12.1759C20 13.5566 21.1193 14.6759 22.5 14.6759Z" stroke="#6B7A99" stroke-width="2" stroke-linecap="round" stroke-linejoin="round"/>
</svg>
