<svg width="61" height="84" viewBox="0 0 61 84" fill="none" xmlns="http://www.w3.org/2000/svg">
<path opacity="0.2" fill-rule="evenodd" clip-rule="evenodd" d="M29.6688 53.9006L45.1431 37.0214H38.7627L35.3799 37.8585L31.2874 36.5214H14.3002L29.6688 53.9006Z" fill="#8833FF"/>
<path d="M18.0311 82.2612H41.3066" stroke="#6B7A99" stroke-width="2" stroke-linecap="round" stroke-linejoin="round"/>
<path d="M29.6688 82.2613V54.4155" stroke="#6B7A99" stroke-width="2" stroke-linecap="round" stroke-linejoin="round"/>
<path fill-rule="evenodd" clip-rule="evenodd" d="M29.6688 54.4155L59.4727 21.3016H1L29.6688 54.4155Z" stroke="#6B7A99" stroke-width="2" stroke-linecap="round" stroke-linejoin="round"/>
<path d="M14.3002 36.5214H32.0494" stroke="#6B7A99" stroke-width="2" stroke-linecap="round" stroke-linejoin="round"/>
<path d="M38.7628 36.5214H45.767" stroke="#6B7A99" stroke-width="2" stroke-linecap="round" stroke-linejoin="round"/>
<path fill-rule="evenodd" clip-rule="evenodd" d="M37 40C40.3137 40 43 37.3137 43 34C43 30.6863 40.3137 28 37 28C33.6863 28 31 30.6863 31 34C31 37.3137 33.6863 40 37 40Z" stroke="#6B7A99" stroke-width="2" stroke-linecap="round" stroke-linejoin="round"/>
<path d="M35.3799 31.4155L44.7938 1" stroke="#6B7A99" stroke-width="2" stroke-linecap="round" stroke-linejoin="round"/>
</svg>
