<svg width="20" height="12" viewBox="0 0 20 12" fill="none" xmlns="http://www.w3.org/2000/svg">
<path fill-rule="evenodd" clip-rule="evenodd" d="M6.3478 4.8139V7.19073C6.3478 7.19073 8.78587 7.1861 9.7817 7.1861C9.24209 8.72432 8.40814 9.56293 6.3478 9.56293C4.26294 9.56293 2.6392 7.96911 2.6392 6C2.6392 4.03089 4.26784 2.43707 6.3478 2.43707C7.45156 2.43707 8.16286 2.80309 8.81531 3.31274C9.3402 2.81699 9.29605 2.74749 10.6255 1.56139C9.49718 0.59305 7.99608 0 6.35271 0C2.84523 0 0 2.68726 0 6C0 9.31274 2.84523 12 6.35271 12C11.5968 12 12.8771 7.68649 12.4503 4.8139C11.2092 4.8139 6.3478 4.8139 6.3478 4.8139ZM17.8098 5.19024V3H16.2488V5.19024H14V6.75122H16.2488V9H17.8098V6.75122H20V5.19024H17.8098Z" fill="#C3CAD9"/>
</svg>
