<svg width="67" height="46" viewBox="0 0 67 46" fill="none" xmlns="http://www.w3.org/2000/svg">
<path opacity="0.2" fill-rule="evenodd" clip-rule="evenodd" d="M1 41C1 38.7909 2.79086 37 5 37H62C64.2091 37 66 38.7909 66 41C66 43.2091 64.2091 45 62 45H5C2.79086 45 1 43.2091 1 41Z" fill="#E62E7B"/>
<path fill-rule="evenodd" clip-rule="evenodd" d="M1 5C1 2.79086 2.79086 1 5 1H62C64.2091 1 66 2.79086 66 5V5C66 7.20914 64.2091 9 62 9H5C2.79086 9 1 7.20914 1 5V5Z" stroke="#6B7A99" stroke-width="2" stroke-linecap="round" stroke-linejoin="round"/>
<path fill-rule="evenodd" clip-rule="evenodd" d="M1 23C1 20.7909 2.79086 19 5 19H62C64.2091 19 66 20.7909 66 23V23C66 25.2091 64.2091 27 62 27H5C2.79086 27 1 25.2091 1 23V23Z" stroke="#6B7A99" stroke-width="2" stroke-linecap="round" stroke-linejoin="round"/>
<path fill-rule="evenodd" clip-rule="evenodd" d="M1 41C1 38.7909 2.79086 37 5 37H62C64.2091 37 66 38.7909 66 41V41C66 43.2091 64.2091 45 62 45H5C2.79086 45 1 43.2091 1 41V41Z" stroke="#6B7A99" stroke-width="2" stroke-linecap="round" stroke-linejoin="round"/>
</svg>
