<svg width="20" height="20" viewBox="0 0 20 20" fill="none" xmlns="http://www.w3.org/2000/svg">
<path fill-rule="evenodd" clip-rule="evenodd" d="M19.4745 3.44668C19.2195 2.7898 18.8794 2.23338 18.323 1.67697C17.7666 1.12056 17.2102 0.780526 16.5533 0.525502C15.9196 0.278207 15.1855 0.108192 14.1267 0.0618238L14.1088 0.0610423C13.0564 0.0152821 12.7049 0 10 0C7.27975 0 6.93972 0.00772798 5.87326 0.0618238C4.8068 0.108192 4.08037 0.278207 3.44668 0.525502C2.7898 0.780526 2.23338 1.12056 1.67697 1.67697C1.12056 2.23338 0.780526 2.7898 0.525502 3.44668C0.278207 4.08037 0.108192 4.81453 0.0618238 5.87326L0.0610423 5.89123C0.0152821 6.94363 0 7.29509 0 10C0 12.7202 0.00772798 13.0603 0.0618238 14.1267C0.108192 15.1932 0.278207 15.9196 0.525502 16.5533C0.780526 17.2102 1.12056 17.7666 1.67697 18.323C2.23338 18.8794 2.7898 19.2195 3.44668 19.4745C4.08037 19.7218 4.81453 19.8918 5.87326 19.9382L5.89122 19.939C6.94363 19.9847 7.29508 20 10 20C12.7202 20 13.0603 19.9923 14.1267 19.9382C15.1932 19.8918 15.9196 19.7218 16.5533 19.4745C17.2102 19.2195 17.7666 18.8794 18.323 18.323C18.8794 17.7666 19.2195 17.2102 19.4745 16.5533C19.7218 15.9196 19.8918 15.1855 19.9382 14.1267L19.939 14.1088C19.9847 13.0564 20 12.7049 20 10C20 7.27975 19.9923 6.93972 19.9382 5.87326C19.8918 4.8068 19.7218 4.08037 19.4745 3.44668ZM17.4435 13.6935C17.4011 14.5833 17.2528 15.0706 17.1257 15.3884C16.9633 15.8121 16.7585 16.1229 16.4407 16.4407C16.1229 16.7585 15.8192 16.9562 15.3884 17.1257C15.0636 17.2528 14.5833 17.4011 13.6935 17.4435L13.6475 17.4455C12.7164 17.4863 12.4044 17.5 10 17.5C7.5565 17.5 7.26695 17.4929 6.3065 17.4435C5.41667 17.4011 4.92938 17.2528 4.61158 17.1257C4.18785 16.9633 3.87712 16.7585 3.55932 16.4407C3.24153 16.1229 3.04379 15.8192 2.87429 15.3884C2.74718 15.0636 2.59887 14.5833 2.5565 13.6935L2.55482 13.6553C2.51375 12.7179 2.5 12.4041 2.5 10C2.5 7.56356 2.50706 7.26695 2.5565 6.3065C2.59887 5.41667 2.74718 4.92938 2.87429 4.61158C3.03672 4.18785 3.24153 3.87712 3.55932 3.55932C3.87712 3.24153 4.18079 3.04379 4.61158 2.87429C4.93644 2.74718 5.41667 2.59887 6.3065 2.5565L6.34472 2.55482C7.28209 2.51375 7.59594 2.5 10 2.5C12.4364 2.5 12.7331 2.50706 13.6935 2.5565C14.5833 2.59887 15.0706 2.74718 15.3884 2.87429C15.8121 3.03672 16.1229 3.24153 16.4407 3.55932C16.7585 3.87712 16.9562 4.18079 17.1257 4.61158C17.2528 4.93644 17.4011 5.41667 17.4435 6.3065L17.4452 6.34469V6.34471C17.4862 7.28209 17.5 7.59594 17.5 10C17.5 12.4132 17.4861 12.7272 17.4447 13.6662L17.4435 13.6935ZM16.25 5C16.25 5.69036 15.6904 6.25 15 6.25C14.3096 6.25 13.75 5.69036 13.75 5C13.75 4.30964 14.3096 3.75 15 3.75C15.6904 3.75 16.25 4.30964 16.25 5ZM10 5C7.2406 5 5 7.2406 5 10C5 12.7594 7.2406 15 10 15C12.7594 15 15 12.7594 15 10C15 7.2406 12.7594 5 10 5ZM7.5 10C7.5 11.3831 8.62269 12.5 10 12.5C11.3773 12.5 12.5 11.3773 12.5 10C12.5 8.6169 11.3831 7.5 10 7.5C8.6169 7.5 7.5 8.62269 7.5 10Z" fill="#C3CAD9"/>
</svg>
