<svg width="15" height="19" viewBox="0 0 15 19" fill="none" xmlns="http://www.w3.org/2000/svg">
<path fill-rule="evenodd" clip-rule="evenodd" d="M7.75048 0C2.69084 0 0 3.24273 0 6.77766C0 8.41684 0.916031 10.4623 2.38311 11.1108C2.60496 11.2106 2.72662 11.1678 2.77672 10.9611C2.81966 10.8043 3.01288 10.0489 3.10592 9.69255C3.13454 9.57852 3.12023 9.47874 3.02719 9.37184C2.54055 8.80882 2.1541 7.78255 2.1541 6.82042C2.1541 4.35452 4.11498 1.95989 7.4499 1.95989C10.334 1.95989 12.3521 3.83426 12.3521 6.51396C12.3521 9.54288 10.749 11.6382 8.66651 11.6382C7.51431 11.6382 6.65553 10.7331 6.92748 9.61415C7.25668 8.28143 7.90076 6.84893 7.90076 5.8868C7.90076 5.02445 7.41412 4.31176 6.41937 4.31176C5.24571 4.31176 4.29389 5.47344 4.29389 7.03422C4.29389 8.02486 4.64456 8.69479 4.64456 8.69479C4.64456 8.69479 3.48521 13.3843 3.27052 14.2609C2.90553 15.7433 3.32061 18.145 3.35639 18.3517C3.37786 18.4657 3.50668 18.5014 3.57824 18.4087C3.69275 18.2591 5.09542 16.2564 5.48903 14.8096C5.63216 14.2823 6.21899 12.1442 6.21899 12.1442C6.60544 12.8426 7.72185 13.427 8.90983 13.427C12.4451 13.427 15 10.3197 15 6.46407C14.9857 2.76523 11.8225 0 7.75048 0Z" fill="#C3CAD9"/>
</svg>
