<svg width="18" height="15" viewBox="0 0 18 15" fill="none" xmlns="http://www.w3.org/2000/svg">
<path fill-rule="evenodd" clip-rule="evenodd" d="M18 1.77519C17.3378 2.07692 16.6266 2.28058 15.8788 2.37115C16.6412 1.90269 17.2269 1.16077 17.5032 0.276923C16.7892 0.710192 15.9992 1.02635 15.1581 1.19538C14.4841 0.459808 13.5242 0 12.4614 0C10.4218 0 8.76932 1.695 8.76932 3.78635C8.76932 4.08288 8.80139 4.3725 8.8644 4.64942C5.7952 4.49135 3.07427 2.98385 1.25244 0.692885C0.935109 1.2525 0.752813 1.90269 0.752813 2.59673C0.752813 3.91096 1.40491 5.06942 2.39516 5.74904C1.79032 5.72885 1.22093 5.55923 0.722993 5.27538C0.722431 5.29096 0.722431 5.30769 0.722431 5.32269C0.722431 7.15788 1.99512 8.68846 3.68473 9.03635C3.37528 9.12231 3.04895 9.16904 2.71193 9.16904C2.47337 9.16904 2.24269 9.14538 2.01763 9.10154C2.48687 10.605 3.85128 11.7 5.46662 11.7312C4.20349 12.7465 2.61122 13.3529 0.881095 13.3529C0.582896 13.3529 0.288635 13.335 0 13.2998C1.63391 14.3729 3.57502 15 5.66073 15C12.4529 15 16.168 9.23019 16.168 4.22596C16.168 4.06212 16.1635 3.89827 16.1568 3.73558C16.8787 3.20192 17.5043 2.53558 18 1.77519Z" fill="#C3CAD9"/>
</svg>
