<svg width="18" height="18" viewBox="0 0 18 18" fill="none" xmlns="http://www.w3.org/2000/svg">
<path fill-rule="evenodd" clip-rule="evenodd" d="M11.4733 2.33963L6.80664 0.706294C6.41464 0.566294 5.98531 0.566294 5.59331 0.696961L1.86931 1.94763C1.11331 2.20896 0.599976 2.91829 0.599976 3.72096V14.781C0.599976 16.097 1.91598 16.993 3.13864 16.517L5.87331 15.453C6.07864 15.369 6.31198 15.369 6.51731 15.4436L11.184 17.077C11.576 17.217 12.0053 17.217 12.3973 17.0863L16.1213 15.8356C16.8773 15.5836 17.3906 14.865 17.3906 14.0623V3.00229C17.3906 1.68629 16.0746 0.790294 14.852 1.26629L12.1173 2.33029C11.912 2.40496 11.688 2.41429 11.4733 2.33963ZM11.8 15.3223L6.19998 13.353V2.46096L11.8 4.43029V15.3223Z" fill="#C3CAD9"/>
</svg>
