<svg width="20" height="18" viewBox="0 0 20 18" fill="none" xmlns="http://www.w3.org/2000/svg">
<path fill-rule="evenodd" clip-rule="evenodd" d="M5.35977 10.2067L8.18977 7.37666L1.99977 1.19666C1.51977 0.716657 0.689768 0.846657 0.389768 1.46666C-0.320232 2.95666 -0.0602319 4.78666 1.16977 6.02666L5.35977 10.2067ZM12.1398 8.39666C13.6698 9.10666 15.8198 8.60666 17.4098 7.01666C19.3198 5.10666 19.6898 2.36666 18.2198 0.896657C16.7598 -0.563343 14.0198 -0.203343 12.0998 1.70666C10.5098 3.29666 10.0098 5.44666 10.7198 6.97666L1.66977 16.0267C1.27977 16.4167 1.27977 17.0467 1.66977 17.4367C2.05977 17.8267 2.68977 17.8267 3.07977 17.4367L9.25977 11.2767L15.4398 17.4567C15.8298 17.8467 16.4598 17.8467 16.8498 17.4567C17.2398 17.0667 17.2398 16.4367 16.8498 16.0467L10.6698 9.86666L12.1398 8.39666Z" fill="#C3CAD9"/>
<mask id="mask0" mask-type="alpha" maskUnits="userSpaceOnUse" x="0" y="0" width="20" height="18">
<path fill-rule="evenodd" clip-rule="evenodd" d="M5.35977 10.2067L8.18977 7.37666L1.99977 1.19666C1.51977 0.716657 0.689768 0.846657 0.389768 1.46666C-0.320232 2.95666 -0.0602319 4.78666 1.16977 6.02666L5.35977 10.2067ZM12.1398 8.39666C13.6698 9.10666 15.8198 8.60666 17.4098 7.01666C19.3198 5.10666 19.6898 2.36666 18.2198 0.896657C16.7598 -0.563343 14.0198 -0.203343 12.0998 1.70666C10.5098 3.29666 10.0098 5.44666 10.7198 6.97666L1.66977 16.0267C1.27977 16.4167 1.27977 17.0467 1.66977 17.4367C2.05977 17.8267 2.68977 17.8267 3.07977 17.4367L9.25977 11.2767L15.4398 17.4567C15.8298 17.8467 16.4598 17.8467 16.8498 17.4567C17.2398 17.0667 17.2398 16.4367 16.8498 16.0467L10.6698 9.86666L12.1398 8.39666Z" fill="white"/>
</mask>
<g mask="url(#mask0)">
</g>
</svg>
